<?xml version="1.0" encoding="UTF-8"?>
<!-- (c) Carrd Inc. All rights reserved. All logos and trademarks are property of their respective owners. -->
<svg xmlns="http://www.w3.org/2000/svg" version="1.1" xmlns:xlink="http://www.w3.org/1999/xlink" viewBox="0 0 40 40" display="none" width="0" height="0">
	<symbol id="arrow-right" viewBox="0 0 40 40"><path d="M34.6,20c0,0.7-0.2,1.3-0.7,1.8L21.1,34.6c-0.5,0.5-1.1,0.7-1.8,0.7c-0.7,0-1.3-0.2-1.8-0.7l-1.5-1.5 c-0.5-0.5-0.7-1.1-0.7-1.8s0.2-1.3,0.7-1.8l5.8-5.8H8c-0.7,0-1.2-0.2-1.7-0.7c-0.4-0.5-0.6-1.1-0.6-1.8v-2.5c0-0.7,0.2-1.3,0.6-1.8 c0.4-0.5,1-0.7,1.7-0.7h13.8l-5.8-5.8c-0.5-0.5-0.7-1.1-0.7-1.8c0-0.7,0.2-1.3,0.7-1.8l1.5-1.5c0.5-0.5,1.1-0.7,1.8-0.7 c0.7,0,1.3,0.2,1.8,0.7l12.8,12.8C34.4,18.7,34.6,19.3,34.6,20z"/></symbol>
</svg>
